<?xml version="1.0" encoding="utf-8"?>
<!-- Generator: Adobe Illustrator 24.1.2, SVG Export Plug-In . SVG Version: 6.00 Build 0)  -->
<svg version="1.1" id="Layer_1" xmlns="http://www.w3.org/2000/svg" xmlns:xlink="http://www.w3.org/1999/xlink" x="0px" y="0px"
	 viewBox="0 0 1080 1080" style="enable-background:new 0 0 1080 1080;" xml:space="preserve">
<style type="text/css">
	.st0{fill:#F4F4F4;}
	.st1{fill:#0A023B;}
</style>
<circle class="st0" cx="540" cy="540" r="540"/>
<path class="st1" d="M454.83,418.17c-6.37-15.92-23.89-55.73-65.29-87.58c-12.74-9.55-41.4-30.26-82.8-35.03
	c-42.99-4.78-74.84,9.55-92.36,17.52c-41.4,19.11-65.29,49.36-78.03,65.29c-9.55,11.15-31.85,41.4-42.99,87.58
	c-7.96,28.66-7.96,49.36-7.96,87.58c0,44.59-1.59,73.25,7.96,109.87c4.78,19.11,15.92,57.33,47.77,95.54
	c19.11,23.89,46.18,55.73,92.36,65.29c55.73,11.15,101.91-20.7,122.61-35.03c47.77-33.44,68.47-78.03,82.8-109.87
	c25.48-55.73,28.66-101.91,30.26-135.35C470.76,500.97,472.35,462.75,454.83,418.17z M357.7,561.48
	c-6.37,39.81-11.15,66.88-30.26,92.36c-19.11,23.89-58.92,60.51-92.36,47.77c-23.89-9.55-30.26-39.81-39.81-70.06
	c-14.33-46.18-6.37-85.99,0-113.06c7.96-36.62,14.33-68.47,42.99-92.36c4.78-3.18,35.03-27.07,60.51-17.52
	c12.74,4.78,20.7,15.92,35.03,39.81c9.55,14.33,17.52,25.48,22.29,42.99C359.29,497.79,365.66,518.49,357.7,561.48z"/>
<path class="st1" d="M931.82,289.86c-20.7-27.07-47.77-35.03-87.58-47.77c-54.14-17.52-101.91-19.11-127.39-17.52
	c-58.92,1.59-100.32,19.11-109.87,22.29c-31.85,12.74-60.51,23.89-78.03,52.55c-14.33,22.29-15.92,46.18-17.52,78.03
	c-1.59,49.36,7.96,73.25,12.74,117.84c3.18,23.89,1.59,57.33,0,122.61c-4.78,162.42-15.92,213.38,17.52,240.45
	c9.55,7.96,27.07,15.92,47.77,17.52c3.18,0,36.63,1.59,57.33-17.52c17.52-17.52,15.92-44.59,4.78-140.13
	c-12.74-101.91-17.52-117.84-4.78-135.35c17.52-25.48,39.81-14.33,109.87-39.81c11.15-4.78,71.66-27.07,130.57-78.03
	c38.22-33.44,66.88-57.33,70.07-95.54C962.07,331.26,941.37,302.6,931.82,289.86z M806.02,377.44
	c-14.33,25.48-42.99,30.26-113.06,52.55c-25.48,7.96-47.77,15.92-65.29,22.29c-20.7-42.99-25.48-87.58-4.78-109.87
	c9.55-11.15,39.81-11.15,100.32-12.74c65.29-1.59,81.21,1.59,87.58,12.74C817.16,355.15,807.61,374.26,806.02,377.44z"/>
</svg>
